<?xml version="1.0" encoding="UTF-8"?>
<svg id="Calque_1" data-name="Calque 1" xmlns="http://www.w3.org/2000/svg" viewBox="0 0 65.52 100">
  <defs>
    <style>
      .cls-1 {
        fill: #b40000;
      }
    </style>
  </defs>
  <path class="cls-1" d="M43.14,90.44c-6.86-.28-13.62-.17-20.54-.05-2.37.05-3.83,2.71-3.88,4.7-.05,2.35,1.53,4.07,3.63,4.91h20.87c2.07-.79,3.64-2.37,3.72-4.71.06-1.88-1.43-4.75-3.79-4.85ZM42.77,95.98h-19.93v-1.69h19.93v1.69Z"/>
  <path class="cls-1" d="M65.42,30.15C63.94,11.84,47.55-1.73,29.42.18,11.87,2.02-1.2,17.48.09,35.06c.59,7.89,3.93,15.36,9.62,20.85,1.87,1.81,3.33,3.59,4.23,6.02,1.29,3.55,1.86,7.18,1.71,10.97-.03.66.23,1.64.6,2.14.57.73,1.69.87,2.65.87l29.07-.09c1.36,0,2-1.44,1.97-2.42-.11-4.51.5-8.92,2.44-12.98,1.2-2.48,3.26-4.12,5.01-6.12,5.85-6.66,8.74-15.36,8.03-24.14ZM53.33,52.74c-5.79,5.85-6.99,10.37-7.52,19.09h-25.99c-.27-6.86-1.73-13.43-6.68-18.12-6.4-6.08-9.71-14.53-8.92-23.53.73-8.11,5.12-15.87,12.05-20.75C28.43.88,44.96,3.04,54.55,14.24c9.49,11.09,9.24,27.91-1.22,38.5Z"/>
  <path class="cls-1" d="M46.47,78.4l-27.52.09c-2.79.01-4.4,3.13-4.09,5.42.34,2.47,2.33,4.35,5.1,4.34h25.75c3-.01,4.95-2.16,5.09-4.84.1-2.23-1.74-5.01-4.34-5.01ZM46.61,84.12h-27.68v-1.69h27.68v1.69Z"/>
  <path class="cls-1" d="M58.25,34.1c-.01,1.07-.85,1.81-1.81,1.9-.85.09-2.16-.53-2.16-1.82-.06-12-9.58-21.55-21.52-21.64-1.15-.01-1.92-.95-1.97-1.91-.04-1.06.73-2.09,1.97-2.09,14.1-.01,25.54,11.47,25.49,25.56Z"/>
</svg>