<?xml version="1.0" encoding="UTF-8"?>
<svg id="Calque_1" data-name="Calque 1" xmlns="http://www.w3.org/2000/svg" viewBox="0 0 76.19 100">
  <defs>
    <style>
      .cls-1 {
        fill: #b40000;
      }
    </style>
  </defs>
  <path class="cls-1" d="M56.1.34c-11.54-1.95-22.81,4.65-26.84,15.74-7.61-1.61-15.21.41-20.95,5.38C2.88,26.17-.24,33.19.01,40.65c.23,6.78,2.19,13.12,5.83,18.84,3.18,5.03,7.25,9.29,12.01,12.86.72.54,1.54.86,2.38,1.31l-2.06,3.68c-.17.32-.09,1.19.12,1.49.2.29.84.62,1.25.63l3.56.02c2.26,6.87,2.43,11.75-1.21,18.13-.47.83-.33,1.71.4,2.16.76.47,1.7.2,2.17-.62,2.15-3.77,3.48-7.93,3.24-12.33-.14-2.55-.82-4.86-1.43-7.31l2.75-.08c.38-.01.97-.42,1.12-.75.13-.27.17-1.08.01-1.36l-2.04-3.65c.75-.4,1.46-.68,2.14-1.15,6.01-4.3,10.78-9.96,14.26-16.57,1.22.92,2.21,1.5,3.57,2.17l-2.09,3.82c-.2.36.02,1.24.26,1.49.23.23.83.49,1.15.5l3.16.03c.07,4.91,1.05,9.51,2.68,14.11,2.65,7.47,3.22,12.48-.72,19.56-.42.76-.33,1.57.29,2.05.59.45,1.68.45,2.12-.31,4.64-7.81,4.01-14.01,1.12-22.25-1.5-4.26-2.48-8.48-2.5-13.14l3.09-.07c.41-.01,1.06-.32,1.25-.61.21-.32.29-1.19.12-1.51l-2.06-3.66c1.29-.64,2.38-1.24,3.46-2.12,9.97-8.05,16.88-18.98,16.74-32.14-.13-11.76-8.74-21.59-20.08-23.52ZM22.14,76.48l1.07-2.07c.41-.09,1.38-.14,1.82-.05l1.19,2.09-4.07.03ZM45.33,41.11c-.63,11.73-6.76,20.96-15.8,28.26-3.32,2.68-7.56,2.57-10.76-.03-8.93-7.23-15.01-16.28-15.75-28.01-.77-12.31,8.84-22.56,20.95-22.68,12.19-.12,22.03,10.07,21.37,22.47ZM50.01,60.94l1.08-2.06c.4-.1,1.39-.16,1.81-.05l1.19,2.09-4.07.02ZM57.63,53.67c-3.66,3.06-8.64,2.79-11.83-.7,1.77-4.58,2.68-9.3,2.48-14.25-.38-9.9-6.72-18.47-16.11-21.83,3.48-9.61,13.36-15.31,23.38-13.62,9.86,1.65,17.42,10.1,17.64,20.36.14,6.22-1.51,12.12-4.6,17.5-2.82,4.91-6.56,8.88-10.96,12.54Z"/>
  <path class="cls-1" d="M41.51,39.43c.02,1.1-.63,1.66-1.39,1.71-.88.07-1.58-.59-1.59-1.57-.1-5.49-3.18-10.35-8.05-12.79-.77-.39-1.02-1.25-.75-1.93.28-.7,1.17-1.17,1.98-.77,5.87,2.85,9.62,8.71,9.81,15.35Z"/>
  <path class="cls-1" d="M69.39,23.9c.03,1.1-.62,1.66-1.38,1.71-.89.07-1.58-.58-1.6-1.57-.09-5.49-3.17-10.35-8.04-12.79-.76-.38-1.01-1.25-.74-1.92.27-.69,1.17-1.17,1.97-.78,5.87,2.87,9.62,8.71,9.8,15.35Z"/>
</svg>