<?xml version="1.0" encoding="UTF-8"?>
<svg id="Calque_1" data-name="Calque 1" xmlns="http://www.w3.org/2000/svg" viewBox="0 0 100 40.68">
  <defs>
    <style>
      .cls-1 {
        fill: #b40000;
      }
    </style>
  </defs>
  <path class="cls-1" d="M98.76,28.16l-1.93-.02c-1.74-.01-3.06-1.42-3.11-3.02-.05-1.72,1.29-3.19,3.11-3.21l2.15-.03c.35-.63.84-1.42.93-2.14.39-3.14-4.79-7.2-8.34-7.41l-23.23-1.41-11.1-8.55C55.29.86,53.05.07,50.56.02L39.05,0c-3.93,0-7.66.82-11.13,2.62l-5.55,2.87c-5.92,3.06-11.06,3.79-17.69,3.89-1.89.03-3.16,1.5-3.14,3.34l.03,2.93h4.69c1.82.01,3.16,1.56,3.11,3.21-.07,1.9-1.62,3.08-3.5,3.06l-4.71-.03-1.16,3.92v1.56l3.48,6.87c.59,1.12,1.69,1.68,2.96,1.68h11.1c2.12,3.03,5.4,4.73,8.93,4.76,3.6.03,6.96-1.68,9.12-4.76h35.06c2.13,3.02,5.41,4.73,8.93,4.76,3.61.02,6.96-1.67,9.11-4.75h7.98c1.83,0,3.21-1.25,3.34-3.09.12-1.7-.32-3.21-1.22-4.68ZM26.55,34.43c-2.58,0-4.68-2.09-4.68-4.68s2.09-4.68,4.68-4.68,4.68,2.1,4.68,4.68-2.09,4.68-4.68,4.68ZM38.19,11l2.67-4.75,9.72.02c.96,0,2.02.39,2.8,1l4.65,3.66-19.84.08ZM79.66,34.43c-2.58,0-4.68-2.09-4.68-4.68s2.09-4.68,4.68-4.68,4.68,2.1,4.68,4.68-2.1,4.68-4.68,4.68Z"/>
</svg>