<?xml version="1.0" encoding="UTF-8"?>
<svg id="Calque_1" data-name="Calque 1" xmlns="http://www.w3.org/2000/svg" viewBox="0 0 99.92 100">
  <defs>
    <style>
      .cls-1 {
        fill: #b40000;
      }
    </style>
  </defs>
  <path class="cls-1" d="M75.18.05L25.13,0C11.55-.02,0,10.78,0,24.51v50.98c0,13.73,11.55,24.51,25.13,24.51h49.58c14.01,0,25.23-11.18,25.22-25.3V25.2C99.92,11.47,89,.06,75.18.05ZM73.72,38.24l-24.97,29.98c-1.86,2.21-5.11,2.35-7.19.45l-14.9-13.53c-2.2-1.98-2.23-5.07-.49-7.05,1.84-2.1,5.02-2.32,7.14-.4l11.12,10.09,21.67-26c1.84-2.2,5.04-2.32,7.1-.52,1.98,1.72,2.35,4.79.52,6.99Z"/>
</svg>