<?xml version="1.0" encoding="UTF-8"?>
<svg id="Calque_1" data-name="Calque 1" xmlns="http://www.w3.org/2000/svg" viewBox="0 0 88.34 100">
  <defs>
    <style>
      .cls-1 {
        fill: #fff;
      }
    </style>
  </defs>
  <path class="cls-1" d="M46.44,14.13l.08-7.14,5.85-.02c1.97-.01,3.46-1.73,3.41-3.51-.04-1.99-1.58-3.45-3.63-3.45h-18.3c-2.05,0-3.58,1.45-3.63,3.45-.04,1.79,1.43,3.5,3.41,3.51l5.87.03v7.14C16.3,16.03-1.02,36.01.05,58.98c1.07,22.95,20.02,41.03,43,41.02,23.03-.02,41.94-18.2,42.91-41.22.97-23-16.44-42.79-39.52-44.66ZM64.73,70.07c-.74,1.5-2.66,2.6-4.47,1.68l-18.77-9.36c-1.27-.64-1.92-1.85-1.92-3.28v-27.64c-.01-2.11,1.64-3.62,3.55-3.57,2.05.04,3.43,1.67,3.43,3.78v25.44s16.94,8.51,16.94,8.51c1.66.83,1.96,2.98,1.25,4.43Z"/>
  <path class="cls-1" d="M87.38,29.1c-1.26,1.35-3.53,1.55-4.92.16l-9.36-9.35c-1.34-1.34-1.32-3.38-.21-4.72,1.16-1.38,3.48-1.82,4.89-.42l9.54,9.51c1.43,1.42,1.27,3.55.07,4.83Z"/>
</svg>