<?xml version="1.0" encoding="UTF-8"?>
<svg id="Calque_1" data-name="Calque 1" xmlns="http://www.w3.org/2000/svg" viewBox="0 0 100 100">
  <defs>
    <style>
      .cls-1 {
        fill: #fff;
      }
    </style>
  </defs>
  <path class="cls-1" d="M93.81,47.06c-1.44-21.86-19-39.43-40.87-40.87V0h-5.87v6.19C25.19,7.63,7.63,25.2,6.19,47.06H0v5.87h6.19c1.44,21.87,19.01,39.44,40.87,40.88v6.19h5.87v-6.19c21.87-1.44,39.44-19.01,40.88-40.87h6.19v-5.87h-6.19ZM87.94,47.07h-11.74c-1.43-12.24-10.99-21.84-23.26-23.26v-11.75c18.63,1.4,33.6,16.37,35,35.01ZM47.07,12.06v11.74c-12.28,1.43-21.85,11.03-23.26,23.27h-11.75C13.46,28.43,28.43,13.46,47.07,12.06ZM12.06,52.93h11.74c1.43,12.16,10.87,21.8,23.25,23.26l.03,11.76c-18.65-1.41-33.62-16.38-35.02-35.02ZM52.92,64.65h-5.83l-.08,5.64c-9.07-1.4-15.95-8.41-17.3-17.34l5.64-.03v-5.84l-5.63-.03c1.32-9.01,8.43-16.06,17.34-17.32v5.62h5.84s.06-5.63.06-5.63c8.97,1.33,15.99,8.34,17.32,17.33l-5.63.03v5.84l5.61.03c-1.22,8.91-8.4,16.07-17.32,17.32,0,0-.02-5.62-.02-5.62ZM52.95,87.95l-.02-11.75c12.25-1.41,21.85-11.02,23.26-23.27h11.76c-1.43,18.54-16.2,33.54-35,35.02Z"/>
  <circle class="cls-1" cx="50" cy="50" r="8.76"/>
</svg>