<?xml version="1.0" encoding="UTF-8"?>
<svg id="Calque_1" data-name="Calque 1" xmlns="http://www.w3.org/2000/svg" viewBox="0 0 100 96.9">
  <defs>
    <style>
      .cls-1 {
        fill: #b40000;
      }
    </style>
  </defs>
  <path class="cls-1" d="M100,52.66v39.71c-.72,2.65-2.77,4.53-5.7,4.53H7.47c-3.15,0-5.66-2.34-5.66-5.54v-54.41c-.01-.58.14-1.03.39-1.53l17.24,17.24,18.57-.04-19.93-19.97,16.73-.04,20.04,20.05,18.59-.02-19.94-19.98,15.75-.03,20.03,20.03h10.71Z"/>
  <polygon class="cls-1" points="100 32.62 100 44.58 87.98 32.68 100 32.62"/>
  <polygon class="cls-1" points="83.44 0 66.55 22.64 49.98 25.04 66.86 2.37 83.44 0"/>
  <polygon class="cls-1" points="48.36 5.12 31.48 27.73 15.9 29.94 32.78 7.31 48.36 5.12"/>
  <path class="cls-1" d="M14.31,10.01L1.64,26.97.11,16.87c-.55-2.52,1.07-4.94,3.63-5.36l10.58-1.5Z"/>
  <path class="cls-1" d="M95.01,18.54l-9.99,1.4,12.33-16.51,1.49,10.02c.34,2.49-1.24,4.71-3.84,5.09Z"/>
</svg>