<?xml version="1.0" encoding="UTF-8"?>
<svg id="Calque_1" data-name="Calque 1" xmlns="http://www.w3.org/2000/svg" viewBox="0 0 100 81.25">
  <defs>
    <style>
      .cls-1 {
        fill: #fff;
      }
    </style>
  </defs>
  <path class="cls-1" d="M80.2,5.01l-.08-5H19.91s-.1,4.99-.1,4.99l-19.81.07v5.28c.09.12.14.46.17.78,1.62,17.82,10.99,32.81,30.81,31.08,1.9,2.58,3.94,4.8,6.36,6.77,2.07,1.62,4.21,2.88,6.71,3.85v14.37s-14.43.01-14.43.01l-.03,8.98-4.78.04.03,5.02h50.32l.02-5.03-4.78-.03v-8.97s-14.46-.02-14.46-.02v-14.36c2.6-1,4.8-2.33,6.93-4.03,2.33-1.93,4.3-4.11,6.15-6.59,19.8,1.65,29.04-13.07,30.8-30.89.04-.39.06-.8.18-.98v-5.34h-19.8ZM16.6,32.41c-2.78-2.06-4.71-4.71-6.24-7.81-1.99-4.1-3.06-8.45-3.57-13.04h13.44c.46,4.55,1.11,8.82,2.31,13.16,1.04,3.8,2.44,7.23,4.41,10.98-3.74.01-7.32-1.15-10.35-3.29ZM89.58,24.73c-1.49,2.97-3.31,5.5-6.02,7.55-3.1,2.29-6.69,3.36-10.53,3.46,1.79-3.41,3.19-6.67,4.22-10.29,1.32-4.56,2.06-9.08,2.51-13.89h13.45c-.52,4.64-1.61,9.04-3.63,13.17Z"/>
</svg>