<?xml version="1.0" encoding="UTF-8"?>
<svg id="Calque_1" data-name="Calque 1" xmlns="http://www.w3.org/2000/svg" viewBox="0 0 100 87.89">
  <defs>
    <style>
      .cls-1 {
        fill: #b40000;
      }
    </style>
  </defs>
  <path class="cls-1" d="M99.78,23.43c.08,7.35-1.63,16.23-4.03,23.11-2.91,8.35-7.56,16.6-13.96,22.73-.62.59-1.37,1.04-2.34,1.04H3.36c-1.7,0-2.69-.72-3.36-2.15v-1.56l.69-1.09c1.98-1.88,3.67-3.82,5.31-6.03,7.64-10.56,11.16-23.14,11.68-36.05h82.1Z"/>
  <path class="cls-1" d="M100,52.32v33.38c-.59,1.05-1.29,2.18-2.77,2.18H20.74c-1.68-.04-2.96-1.27-2.96-2.92v-8.79s61.48,0,61.48,0c2.5,0,4.58-.83,6.36-2.47,6.49-5.97,10.88-13.52,14.38-21.38Z"/>
  <path class="cls-1" d="M100,8.03v9.54H17.78v-8.79c-.01-1.65,1.29-2.9,2.92-2.93h14.64l.02-2.94C35.36,1.2,36.76-.05,38.37,0c1.51.05,2.83,1.26,2.83,2.91l.02,2.94h14.64l-.02-2.74c-.01-1.72,1.2-3.06,2.86-3.11,1.58-.05,3,1.19,3.01,2.91l.02,2.94h14.83v-2.74c-.02-1.72,1.18-3.06,2.84-3.11,1.59-.05,3.01,1.19,3.02,2.91v2.94s14.84.01,14.84.01c1.41,0,2.19,1.11,2.74,2.17Z"/>
</svg>