<?xml version="1.0" encoding="UTF-8"?>
<svg id="Calque_1" data-name="Calque 1" xmlns="http://www.w3.org/2000/svg" viewBox="0 0 100 76.3">
  <defs>
    <style>
      .cls-1 {
        fill: #b40000;
      }
    </style>
  </defs>
  <path class="cls-1" d="M99.73,47.74c-1.24-15.17-6.46-28.83-15.02-41.37-6.62-3.02-13.39-5.14-20.62-6.37-1.02,1.83-1.83,3.56-2.7,5.4-7.65-1.15-15.13-1.14-22.77-.01-.87-1.83-1.7-3.54-2.73-5.38-7.2,1.22-13.98,3.33-20.63,6.37C6.83,18.87,1.48,32.63.29,47.74c-.08.99-.29,2.08-.29,2.9v8.2c.38.22.07,3.65.51,4.75,7.7,5.67,16.07,9.92,25.23,12.71,2.04-2.8,3.76-5.6,5.36-8.74-2.94-1.29-5.65-2.42-8.4-4.13l1.99-1.63c16.37,7.49,34.14,7.61,50.53.01.73.49,1.25.9,2,1.62-2.67,1.71-5.32,2.83-8.36,4.08,1.49,3.07,3.29,5.84,5.32,8.78,9.13-2.71,17.57-7.03,25.3-12.7.41-1.15.16-4.64.52-4.94v-8.01c-.25-.89-.19-1.85-.27-2.9ZM39.86,48.95c-3.39,3.99-9.06,4.06-12.57.33-3.71-3.95-3.83-10.26-.29-14.39,1.72-2.01,4.12-3.08,6.68-3.01,2.45.07,4.8,1.24,6.43,3.3,3.14,3.97,3.09,9.83-.25,13.77ZM73.08,48.97c-3.39,3.99-9.08,4.03-12.57.3-3.69-3.95-3.82-10.23-.29-14.37,1.71-2.01,4.1-3.09,6.66-3.02,2.5.07,4.89,1.27,6.53,3.39,3.07,3.97,2.99,9.8-.33,13.7Z"/>
</svg>