<?xml version="1.0" encoding="UTF-8"?>
<svg id="Calque_1" data-name="Calque 1" xmlns="http://www.w3.org/2000/svg" viewBox="0 0 56.63 100">
  <defs>
    <style>
      .cls-1 {
        fill: #b40000;
      }
    </style>
  </defs>
  <path class="cls-1" d="M56.19,36.15L2.95,99.37l-.84.63h-.93c-.98-.54-1.46-1.39-.97-2.55l18.57-44.1-17.02-.02c-.63,0-1.26-.35-1.52-.78-.25-.42-.36-1.1-.08-1.65L25.25.71l.91-.71h27.74c.35.32.82.74.98,1.12.21.53,0,1.15-.33,1.71l-19.3,30.48,19.62.03c.69,0,1.36.42,1.58.89.28.63.23,1.33-.26,1.92Z"/>
</svg>