<?xml version="1.0" encoding="UTF-8"?>
<svg id="Calque_1" data-name="Calque 1" xmlns="http://www.w3.org/2000/svg" viewBox="0 0 100 87.15">
  <defs>
    <style>
      .cls-1 {
        fill: #b40000;
      }
    </style>
  </defs>
  <path class="cls-1" d="M75.79,56.85l-17.79-2.6-8-16.1-7.98,16.11-17.76,2.62,12.84,12.54-3.02,17.73,15.93-8.35,15.91,8.33-2.98-17.73,12.85-12.55ZM50.04,72.19l-8.17,4.24,1.52-9.05-6.54-6.44,9.05-1.35,4.1-8.21,4.07,8.18,9.11,1.38-6.56,6.44,1.53,9.06-8.13-4.25Z"/>
  <path class="cls-1" d="M46,16.7l-15.88-2.33L22.99.02l-7.15,14.37L0,16.72l11.46,11.18-2.67,15.83,14.24-7.45,14.16,7.43-2.67-15.79,11.48-11.22ZM29.4,33l-6.38-3.32-6.45,3.32,1.18-7.14-5.15-5.05,7.15-1.07,3.23-6.49,3.23,6.48,7.13,1.08-5.12,5.09,1.18,7.1Z"/>
  <path class="cls-1" d="M100,16.71l-15.87-2.34-7.13-14.37-7.12,14.38-15.86,2.34,11.46,11.19-2.66,15.81,14.21-7.43,14.19,7.45-2.69-15.81,11.47-11.22ZM83.42,33.02l-6.38-3.34-6.44,3.33,1.16-7.17-5.1-5.02,7.12-1.09,3.24-6.48,3.19,6.47,7.18,1.09-5.14,5.06,1.17,7.15Z"/>
</svg>