<?xml version="1.0" encoding="UTF-8"?>
<svg id="Calque_1" data-name="Calque 1" xmlns="http://www.w3.org/2000/svg" viewBox="0 0 70.59 100">
  <defs>
    <style>
      .cls-1 {
        fill: #fff;
      }
    </style>
  </defs>
  <path class="cls-1" d="M46.2,1.75C33.75-2.36,20.08.92,10.7,10.07,3.71,16.91-.26,26.26.01,36.09c.26,9.35,8.94,25.34,13.79,33.58,5.93,10.07,12.32,19.69,19.21,29.09.55.75,1.45,1.23,2.22,1.24.66.02,1.87-.31,2.44-1.09,8.83-12.16,19.08-27.8,25.73-41.14,2.75-5.49,6.89-14.78,7.15-20.8.7-15.84-9.35-30.25-24.35-35.21ZM35.27,52.84c-10.19,0-18.46-8.27-18.46-18.46s8.27-18.45,18.46-18.45,18.46,8.26,18.46,18.45-8.27,18.46-18.46,18.46Z"/>
</svg>