<?xml version="1.0" encoding="UTF-8"?>
<svg id="Calque_1" data-name="Calque 1" xmlns="http://www.w3.org/2000/svg" viewBox="0 0 100 45.78">
  <defs>
    <style>
      .cls-1 {
        fill: #fff;
      }
    </style>
  </defs>
  <path class="cls-1" d="M96.61,9.73c-2.56-1.98-6-2.58-9.03-1.17l-21.5,9.97c-.03-4.11-2.33-7.93-6.33-8.9L26.51,1.59l-10.67,2.8C15.45,1.72,13.41-.01,10.86,0l-6.17.03C1.94.05-.01,2.41,0,5.03l.02,7.51c0,1.12.84,1.87,1.9,1.79.83-.07,1.6-.8,1.6-1.81v-7.7c.01-.77.64-1.3,1.36-1.3h6.22c.51.01,1.22.55,1.22,1.18v36.13c0,.87-.68,1.42-1.45,1.42h-5.98c-.74,0-1.35-.56-1.35-1.33l-.02-8.77c0-1.06-.96-1.7-1.8-1.68C.75,30.51,0,31.25,0,32.32l.02,8.73c.01,2.71,2.33,4.73,4.87,4.73l6.19-.02c2.58,0,4.61-2.13,4.73-4.64l.12-2.41c14.24,4.23,28.84,5.92,43.74,5.2l35.39-19.09c2.66-1.44,4.27-3.98,4.84-6.81.45-3.27-.86-6.37-3.3-8.28ZM93.85,21.49l-35.08,18.92c-14.57.65-28.97-1.1-42.92-5.41V8.06l10.65-2.85,32.45,7.81c2.76,1.01,4.07,3.78,3.4,6.51-.63,2.6-3.28,4.58-6.23,3.98l-30.27-6.15c-1.02-.21-1.82.47-2.02,1.25-.23.86.19,1.95,1.25,2.17l30.17,6.15c3.74.77,7.22-.91,9.31-3.8l24.76-11.48c2.59-1.21,5.49.45,6.58,2.62,1.34,2.66.37,5.42-2.05,7.21Z"/>
  <path class="cls-1" d="M3.49,19.15c0,.95-.77,1.72-1.72,1.72S.06,20.09.06,19.15s.77-1.72,1.71-1.72,1.72.78,1.72,1.72Z"/>
  <path class="cls-1" d="M3.49,25.65c0,.95-.77,1.71-1.72,1.71S.06,26.59.06,25.65s.77-1.72,1.71-1.72,1.72.78,1.72,1.72Z"/>
</svg>