<?xml version="1.0" encoding="UTF-8"?>
<svg id="Calque_1" data-name="Calque 1" xmlns="http://www.w3.org/2000/svg" viewBox="0 0 100 99.74">
  <defs>
    <style>
      .cls-1 {
        fill: #b40000;
      }
    </style>
  </defs>
  <path class="cls-1" d="M99.99,10.97C99.99,4.89,95.11.01,89.03.01h-33.3c-3.1-.01-5.89,1.19-8.02,3.41L3.16,50.13c-4.16,4.36-4.28,11.13.05,15.45l30.99,30.99c4.25,4.24,11.17,4.24,15.45-.11l47.11-47.84c2.08-2.12,3.24-4.79,3.24-7.78V10.97ZM74.98,14.26c5.93,0,10.73,4.8,10.73,10.73s-4.8,10.72-10.73,10.72-10.72-4.8-10.72-10.72,4.79-10.73,10.72-10.73Z"/>
</svg>