<?xml version="1.0" encoding="UTF-8"?>
<svg id="Calque_1" data-name="Calque 1" xmlns="http://www.w3.org/2000/svg" viewBox="0 0 73.8 100">
  <defs>
    <style>
      .cls-1 {
        fill: #fff;
      }
    </style>
  </defs>
  <path class="cls-1" d="M69.34,86.18l-11.99,12c-.84.84-1.7,1.38-2.72,1.82h-1.89c-1.51-.57-2.81-1.55-3.26-2.99-.53-1.7-.16-3.38,1.09-4.63l12.56-12.59c1.78-1.78,1.59-4.62-.08-6.24-1.75-1.7-4.49-1.73-6.3.07l-18.92,18.88c-8.11,8.1-21.06,8.51-29.77,1.3-8.67-7.17-10.62-19.78-4.37-29.34l-2.52-2.55c-1.57-1.77-1.54-4.1-.09-5.97l20.32-26.11c2.92,11.19,11.39,19.63,22.54,22.58l-26.22,20.4c-1.85,1.43-4.26,1.31-5.91-.27l-1.59-1.51c-2.83,5.87-.87,12.91,4.38,16.59,5.23,3.66,12.42,3.12,17.03-1.48l18.93-18.9c5.25-5.24,13.7-5.06,18.79.03,5.22,5.21,5.23,13.65-.03,18.92Z"/>
  <path class="cls-1" d="M70.11,34.46L39.34,3.69c8.88-5.89,20.5-4.56,27.91,2.78,7.34,7.29,8.82,18.96,2.86,27.98Z"/>
  <path class="cls-1" d="M63.8,40.74c-8.88,5.86-20.59,4.55-27.97-2.85-7.37-7.39-8.62-19.11-2.77-27.89l30.74,30.74Z"/>
</svg>