<?xml version="1.0" encoding="UTF-8"?>
<svg id="Calque_1" data-name="Calque 1" xmlns="http://www.w3.org/2000/svg" viewBox="0 0 100 63.72">
  <defs>
    <style>
      .cls-1 {
        fill: #b40000;
      }
    </style>
  </defs>
  <path class="cls-1" d="M75.73,60.96c-1.25,1.59-3.26,2.75-5.67,2.75H30.16c-2.43,0-4.46-.99-5.79-2.64-1.58-1.92-2.03-4.33-1.35-6.67l1.85-6.62c1.61-5.75,6.03-10.02,12-11.21-4.71-6.83-3.44-15.76,2.53-21.05,6.05-5.37,15.17-5.37,21.21-.01,5.97,5.3,7.22,14.22,2.54,21.06,5.71,1.15,10.23,5.15,11.82,10.71l2.09,7.29c.54,2.25.17,4.49-1.33,6.39Z"/>
  <path class="cls-1" d="M27.51,32.84c-4.43,2.95-7.83,7.15-9.29,12.31l-1.99,7.05H7.14c-2.27.01-4.3-1.14-5.53-2.67-1.47-1.83-1.94-4.06-1.38-6.29l2-7.15c1.58-5.62,6.02-9.84,11.94-10.98-5.06-7.3-3.26-17.06,3.86-22.15,7.02-5.02,16.96-3.52,22.16,3.63-9.93,4.66-15.23,15.49-12.69,26.25Z"/>
  <path class="cls-1" d="M93,52.17l-9.18.05-2.05-7.06c-1.46-5.09-4.75-9.33-9.27-12.3,2.51-10.65-2.67-21.58-12.7-26.29,5.17-7.07,14.99-8.63,22.02-3.71,7.13,4.97,9.14,14.72,4.02,22.22,5.7,1.15,10.25,5.18,11.85,10.82l2.08,7.34c1.09,4.37-2.06,8.91-6.79,8.94Z"/>
</svg>