<?xml version="1.0" encoding="UTF-8"?>
<svg id="Calque_1" data-name="Calque 1" xmlns="http://www.w3.org/2000/svg" viewBox="0 0 100 95.02">
  <defs>
    <style>
      .cls-1 {
        fill: #fff;
      }
    </style>
  </defs>
  <path class="cls-1" d="M100,71.55v1.31c-4.29,7.16-10.93,15.91-18.35,20.12-2.85,1.62-5.91,2.28-9.21,1.96-3.49-.34-6.78-1.04-10.13-2.18-6.14-2.07-12.05-4.55-17.61-7.95-12-7.35-23.81-18.19-32.21-29.48C7.28,48.32,1.08,36.44,0,27.97v-3.13c.48-2.42,1.3-4.74,2.57-6.97C6.32,11.34,12.93,5.11,18.88.56c1.18-.9,2.67-.69,3.63.45l18.13,21.82c.96,1.16.67,2.66-.39,3.61-3.27,2.89-6.34,5.84-9.14,9.19-.62.75-1.17,1.58-1.55,2.48.93,1.66,1.82,2.99,3,4.4,3.56,4.25,7.26,8.27,11.44,11.96,4.27,3.77,8.66,7.14,13.41,10.22,1.27.83,2.5,1.46,3.92,1.96,3.58-2.59,7.82-8.22,10.45-11.82.86-1.18,2.33-1.48,3.58-.63l23.84,16.12.8,1.23Z"/>
</svg>