<?xml version="1.0" encoding="UTF-8"?>
<svg id="Calque_1" data-name="Calque 1" xmlns="http://www.w3.org/2000/svg" viewBox="0 0 99.04 100">
  <defs>
    <style>
      .cls-1 {
        fill: #b40000;
      }
    </style>
  </defs>
  <path class="cls-1" d="M97.87,32.72c-2.91,2.52-6.98,3.07-10.45,1.21l-25.04,29.17c4.29,4.87,4.07,12.13-.47,16.7-1.08,1.19-2.84,1.23-3.98.05l-15.66-15.67-16.64,16.6-9.04,8.39-12.62,10.39c-.2.16-.81.34-.96.44h-.92c-.85-.32-1.6-.81-1.89-1.58-.36-.9-.25-1.89.39-2.66l10.22-12.39,8.29-8.93,16.68-16.75-16.49-16.49c-1.06-.97-1.2-2.37-.47-3.56,4.5-4.99,12.12-5.39,17.15-.95l29.18-25.04c-2.09-3.87-1.15-8.56,2.12-11.27l.8-.38h.98l1.13.5,28.07,28.07c1.26,1.33.92,3.03-.38,4.15Z"/>
</svg>